# xmcd
# Track frame offsets:
# 150
# 16462
# 32392
# 45706
# 60299
# 74120
# 88269
# 106692
# 123034
# 140520
# 153759
# 169168
# 186111
# 201073
# 217475
# 234476
# 250023
# 265845
#
# Disc length: 3746 seconds
# Revision: 0
# Processed by: cddbd v1.5.1PL0 Copyright (c) Steve Scherf et al.
# Submitted via: VisiTrax 2.9.10.220 - For more info visit www.synapsa.com
#
DISCID=f70ea012
DTITLE=Various Artist - Promo Only Country Radio May 2002
DYEAR=2002
DGENRE=
TTITLE0=Diamond Rio - Beautiful Mess
TTITLE1=Aaron Tippin - I'll Take Love Over Money
TTITLE2=Brooks and Dunn - My Heart Is Lost To You
TTITLE3=Pinmonkey - Barbed Wire And Roses
TTITLE4=Phil Vassar - American Child
TTITLE5=Jeffrey Steele - Good To Go
TTITLE6=Martina McBride - Where Would You Be
TTITLE7=Sawyer Brown - Can You Hear Me Now
TTITLE8=Joe Nichols - Impossible, The
TTITLE9=Rodney Atkins - Sing Along
TTITLE10=Sixwire - Look At Me Now
TTITLE11=Clark Family Experience - Going Away
TTITLE12=Hank Williams Jr. - "F" Word, The
TTITLE13=Charlene Carole - Where Do I Go From Here
TTITLE14=David Nail - Memphis
TTITLE15=Cledus T. Judd - Breath
TTITLE16=J. Michael Harter - Hard Call To Make
TTITLE17=Stevens Sisters, The - Little By Little
EXTD=
EXTT0=
EXTT1=
EXTT2=
EXTT3=
EXTT4=
EXTT5=
EXTT6=
EXTT7=
EXTT8=
EXTT9=
EXTT10=
EXTT11=
EXTT12=
EXTT13=
EXTT14=
EXTT15=
EXTT16=
EXTT17=
PLAYORDER=
